<mxfile host="65bd71144e">
    <diagram id="iQlcacigr2z2rtyDbwIN" name="Page-1">
        <mxGraphModel dx="860" dy="345" grid="1" gridSize="10" guides="1" tooltips="1" connect="1" arrows="1" fold="1" page="1" pageScale="1" pageWidth="850" pageHeight="1100" math="0" shadow="0">
            <root>
                <mxCell id="0"/>
                <mxCell id="1" parent="0"/>
                <mxCell id="2" value="" style="shape=table;startSize=0;container=1;collapsible=0;childLayout=tableLayout;sketch=1;hachureGap=4;jiggle=2;curveFitting=1;fontFamily=Verdana;fontSize=12;" parent="1" vertex="1">
                    <mxGeometry x="130" y="80" width="540" height="381" as="geometry"/>
                </mxCell>
                <mxCell id="3" value="" style="shape=tableRow;horizontal=0;startSize=0;swimlaneHead=0;swimlaneBody=0;top=0;left=0;bottom=0;right=0;collapsible=0;dropTarget=0;fillColor=none;points=[[0,0.5],[1,0.5]];portConstraint=eastwest;sketch=1;hachureGap=4;jiggle=2;curveFitting=1;fontFamily=Verdana;fontSize=12;" parent="2" vertex="1">
                    <mxGeometry width="540" height="54" as="geometry"/>
                </mxCell>
                <mxCell id="4" value="&lt;font style=&quot;font-size: 12px;&quot;&gt;API ROUTES&lt;/font&gt;" style="shape=partialRectangle;html=1;whiteSpace=wrap;connectable=0;overflow=hidden;fillColor=none;top=0;left=0;bottom=0;right=0;pointerEvents=1;sketch=1;hachureGap=4;jiggle=2;curveFitting=1;fontFamily=Verdana;fontSize=12;rowspan=1;colspan=3;" parent="3" vertex="1">
                    <mxGeometry width="540" height="54" as="geometry">
                        <mxRectangle width="250" height="54" as="alternateBounds"/>
                    </mxGeometry>
                </mxCell>
                <mxCell id="5" value="" style="shape=partialRectangle;html=1;whiteSpace=wrap;connectable=0;overflow=hidden;fillColor=none;top=0;left=0;bottom=0;right=0;pointerEvents=1;sketch=1;hachureGap=4;jiggle=2;curveFitting=1;fontFamily=Architects Daughter;fontSource=https%3A%2F%2Ffonts.googleapis.com%2Fcss%3Ffamily%3DArchitects%2BDaughter;fontSize=20;" parent="3" vertex="1" visible="0">
                    <mxGeometry x="250" width="110" height="54" as="geometry">
                        <mxRectangle width="110" height="54" as="alternateBounds"/>
                    </mxGeometry>
                </mxCell>
                <mxCell id="6" value="" style="shape=partialRectangle;html=1;whiteSpace=wrap;connectable=0;overflow=hidden;fillColor=none;top=0;left=0;bottom=0;right=0;pointerEvents=1;sketch=1;hachureGap=4;jiggle=2;curveFitting=1;fontFamily=Architects Daughter;fontSource=https%3A%2F%2Ffonts.googleapis.com%2Fcss%3Ffamily%3DArchitects%2BDaughter;fontSize=20;" parent="3" vertex="1" visible="0">
                    <mxGeometry x="360" width="180" height="54" as="geometry">
                        <mxRectangle width="180" height="54" as="alternateBounds"/>
                    </mxGeometry>
                </mxCell>
                <mxCell id="7" value="" style="shape=tableRow;horizontal=0;startSize=0;swimlaneHead=0;swimlaneBody=0;top=0;left=0;bottom=0;right=0;collapsible=0;dropTarget=0;fillColor=none;points=[[0,0.5],[1,0.5]];portConstraint=eastwest;sketch=1;hachureGap=4;jiggle=2;curveFitting=1;fontFamily=Verdana;fontSize=12;" parent="2" vertex="1">
                    <mxGeometry y="54" width="540" height="56" as="geometry"/>
                </mxCell>
                <mxCell id="8" value="&lt;font style=&quot;font-size: 12px;&quot;&gt;'/menus'&lt;/font&gt;" style="shape=partialRectangle;html=1;whiteSpace=wrap;connectable=0;overflow=hidden;fillColor=none;top=0;left=0;bottom=0;right=0;pointerEvents=1;sketch=1;hachureGap=4;jiggle=2;curveFitting=1;fontFamily=Verdana;fontSize=12;" parent="7" vertex="1">
                    <mxGeometry width="250" height="56" as="geometry">
                        <mxRectangle width="250" height="56" as="alternateBounds"/>
                    </mxGeometry>
                </mxCell>
                <mxCell id="9" value="&lt;font style=&quot;font-size: 12px;&quot;&gt;GET&lt;/font&gt;" style="shape=partialRectangle;html=1;whiteSpace=wrap;connectable=0;overflow=hidden;fillColor=none;top=0;left=0;bottom=0;right=0;pointerEvents=1;sketch=1;hachureGap=4;jiggle=2;curveFitting=1;fontFamily=Verdana;fontSize=12;" parent="7" vertex="1">
                    <mxGeometry x="250" width="110" height="56" as="geometry">
                        <mxRectangle width="110" height="56" as="alternateBounds"/>
                    </mxGeometry>
                </mxCell>
                <mxCell id="10" value="Retrieve all menus" style="shape=partialRectangle;html=1;whiteSpace=wrap;connectable=0;overflow=hidden;fillColor=none;top=0;left=0;bottom=0;right=0;pointerEvents=1;sketch=1;hachureGap=4;jiggle=2;curveFitting=1;fontFamily=Verdana;fontSize=12;" parent="7" vertex="1">
                    <mxGeometry x="360" width="180" height="56" as="geometry">
                        <mxRectangle width="180" height="56" as="alternateBounds"/>
                    </mxGeometry>
                </mxCell>
                <mxCell id="11" value="" style="shape=tableRow;horizontal=0;startSize=0;swimlaneHead=0;swimlaneBody=0;top=0;left=0;bottom=0;right=0;collapsible=0;dropTarget=0;fillColor=none;points=[[0,0.5],[1,0.5]];portConstraint=eastwest;sketch=1;hachureGap=4;jiggle=2;curveFitting=1;fontFamily=Verdana;fontSize=12;" parent="2" vertex="1">
                    <mxGeometry y="110" width="540" height="54" as="geometry"/>
                </mxCell>
                <mxCell id="12" value="'/menus/:category'" style="shape=partialRectangle;html=1;whiteSpace=wrap;connectable=0;overflow=hidden;fillColor=none;top=0;left=0;bottom=0;right=0;pointerEvents=1;sketch=1;hachureGap=4;jiggle=2;curveFitting=1;fontFamily=Verdana;fontSize=12;" parent="11" vertex="1">
                    <mxGeometry width="250" height="54" as="geometry">
                        <mxRectangle width="250" height="54" as="alternateBounds"/>
                    </mxGeometry>
                </mxCell>
                <mxCell id="13" value="GET" style="shape=partialRectangle;html=1;whiteSpace=wrap;connectable=0;overflow=hidden;fillColor=none;top=0;left=0;bottom=0;right=0;pointerEvents=1;sketch=1;hachureGap=4;jiggle=2;curveFitting=1;fontFamily=Verdana;fontSize=12;" parent="11" vertex="1">
                    <mxGeometry x="250" width="110" height="54" as="geometry">
                        <mxRectangle width="110" height="54" as="alternateBounds"/>
                    </mxGeometry>
                </mxCell>
                <mxCell id="14" value="Retrieve menus for a specific category" style="shape=partialRectangle;html=1;whiteSpace=wrap;connectable=0;overflow=hidden;fillColor=none;top=0;left=0;bottom=0;right=0;pointerEvents=1;sketch=1;hachureGap=4;jiggle=2;curveFitting=1;fontFamily=Verdana;fontSize=12;" parent="11" vertex="1">
                    <mxGeometry x="360" width="180" height="54" as="geometry">
                        <mxRectangle width="180" height="54" as="alternateBounds"/>
                    </mxGeometry>
                </mxCell>
                <mxCell id="15" value="" style="shape=tableRow;horizontal=0;startSize=0;swimlaneHead=0;swimlaneBody=0;top=0;left=0;bottom=0;right=0;collapsible=0;dropTarget=0;fillColor=none;points=[[0,0.5],[1,0.5]];portConstraint=eastwest;sketch=1;hachureGap=4;jiggle=2;curveFitting=1;fontFamily=Verdana;fontSize=12;" parent="2" vertex="1">
                    <mxGeometry y="164" width="540" height="54" as="geometry"/>
                </mxCell>
                <mxCell id="16" value="'/users'" style="shape=partialRectangle;html=1;whiteSpace=wrap;connectable=0;overflow=hidden;fillColor=none;top=0;left=0;bottom=0;right=0;pointerEvents=1;sketch=1;hachureGap=4;jiggle=2;curveFitting=1;fontFamily=Verdana;fontSize=12;" parent="15" vertex="1">
                    <mxGeometry width="250" height="54" as="geometry">
                        <mxRectangle width="250" height="54" as="alternateBounds"/>
                    </mxGeometry>
                </mxCell>
                <mxCell id="17" value="POST&lt;span style=&quot;white-space: pre;&quot;&gt;&#9;&lt;/span&gt;" style="shape=partialRectangle;html=1;whiteSpace=wrap;connectable=0;overflow=hidden;fillColor=none;top=0;left=0;bottom=0;right=0;pointerEvents=1;sketch=1;hachureGap=4;jiggle=2;curveFitting=1;fontFamily=Verdana;fontSize=12;" parent="15" vertex="1">
                    <mxGeometry x="250" width="110" height="54" as="geometry">
                        <mxRectangle width="110" height="54" as="alternateBounds"/>
                    </mxGeometry>
                </mxCell>
                <mxCell id="18" value="Create a new user" style="shape=partialRectangle;html=1;whiteSpace=wrap;connectable=0;overflow=hidden;fillColor=none;top=0;left=0;bottom=0;right=0;pointerEvents=1;sketch=1;hachureGap=4;jiggle=2;curveFitting=1;fontFamily=Verdana;fontSize=12;" parent="15" vertex="1">
                    <mxGeometry x="360" width="180" height="54" as="geometry">
                        <mxRectangle width="180" height="54" as="alternateBounds"/>
                    </mxGeometry>
                </mxCell>
                <mxCell id="19" value="" style="shape=tableRow;horizontal=0;startSize=0;swimlaneHead=0;swimlaneBody=0;top=0;left=0;bottom=0;right=0;collapsible=0;dropTarget=0;fillColor=none;points=[[0,0.5],[1,0.5]];portConstraint=eastwest;sketch=1;hachureGap=4;jiggle=2;curveFitting=1;fontFamily=Verdana;fontSize=12;" parent="2" vertex="1">
                    <mxGeometry y="218" width="540" height="54" as="geometry"/>
                </mxCell>
                <mxCell id="20" value="" style="shape=partialRectangle;html=1;whiteSpace=wrap;connectable=0;overflow=hidden;fillColor=none;top=0;left=0;bottom=0;right=0;pointerEvents=1;sketch=1;hachureGap=4;jiggle=2;curveFitting=1;fontFamily=Verdana;fontSize=12;" parent="19" vertex="1">
                    <mxGeometry width="250" height="54" as="geometry">
                        <mxRectangle width="250" height="54" as="alternateBounds"/>
                    </mxGeometry>
                </mxCell>
                <mxCell id="21" value="GET" style="shape=partialRectangle;html=1;whiteSpace=wrap;connectable=0;overflow=hidden;fillColor=none;top=0;left=0;bottom=0;right=0;pointerEvents=1;sketch=1;hachureGap=4;jiggle=2;curveFitting=1;fontFamily=Verdana;fontSize=12;" parent="19" vertex="1">
                    <mxGeometry x="250" width="110" height="54" as="geometry">
                        <mxRectangle width="110" height="54" as="alternateBounds"/>
                    </mxGeometry>
                </mxCell>
                <mxCell id="22" value="Retrieve a users's info and menus" style="shape=partialRectangle;html=1;whiteSpace=wrap;connectable=0;overflow=hidden;fillColor=none;top=0;left=0;bottom=0;right=0;pointerEvents=1;sketch=1;hachureGap=4;jiggle=2;curveFitting=1;fontFamily=Verdana;fontSize=12;" parent="19" vertex="1">
                    <mxGeometry x="360" width="180" height="54" as="geometry">
                        <mxRectangle width="180" height="54" as="alternateBounds"/>
                    </mxGeometry>
                </mxCell>
                <mxCell id="23" value="" style="shape=tableRow;horizontal=0;startSize=0;swimlaneHead=0;swimlaneBody=0;top=0;left=0;bottom=0;right=0;collapsible=0;dropTarget=0;fillColor=none;points=[[0,0.5],[1,0.5]];portConstraint=eastwest;sketch=1;hachureGap=4;jiggle=2;curveFitting=1;fontFamily=Verdana;fontSize=12;" parent="2" vertex="1">
                    <mxGeometry y="272" width="540" height="55" as="geometry"/>
                </mxCell>
                <mxCell id="24" value="'/users/&amp;lt;int:user_id&amp;gt;/menus" style="shape=partialRectangle;html=1;whiteSpace=wrap;connectable=0;overflow=hidden;fillColor=none;top=0;left=0;bottom=0;right=0;pointerEvents=1;sketch=1;hachureGap=4;jiggle=2;curveFitting=1;fontFamily=Verdana;fontSize=12;" parent="23" vertex="1">
                    <mxGeometry width="250" height="55" as="geometry">
                        <mxRectangle width="250" height="55" as="alternateBounds"/>
                    </mxGeometry>
                </mxCell>
                <mxCell id="25" value="GET, POST" style="shape=partialRectangle;html=1;whiteSpace=wrap;connectable=0;overflow=hidden;fillColor=none;top=0;left=0;bottom=0;right=0;pointerEvents=1;sketch=1;hachureGap=4;jiggle=2;curveFitting=1;fontFamily=Verdana;fontSize=12;" parent="23" vertex="1">
                    <mxGeometry x="250" width="110" height="55" as="geometry">
                        <mxRectangle width="110" height="55" as="alternateBounds"/>
                    </mxGeometry>
                </mxCell>
                <mxCell id="26" value="Retrieve all menus created by a user, Create a new menu for a user" style="shape=partialRectangle;html=1;whiteSpace=wrap;connectable=0;overflow=hidden;fillColor=none;top=0;left=0;bottom=0;right=0;pointerEvents=1;sketch=1;hachureGap=4;jiggle=2;curveFitting=1;fontFamily=Verdana;fontSize=12;" parent="23" vertex="1">
                    <mxGeometry x="360" width="180" height="55" as="geometry">
                        <mxRectangle width="180" height="55" as="alternateBounds"/>
                    </mxGeometry>
                </mxCell>
                <mxCell id="27" value="" style="shape=tableRow;horizontal=0;startSize=0;swimlaneHead=0;swimlaneBody=0;top=0;left=0;bottom=0;right=0;collapsible=0;dropTarget=0;fillColor=none;points=[[0,0.5],[1,0.5]];portConstraint=eastwest;sketch=1;hachureGap=4;jiggle=2;curveFitting=1;fontFamily=Verdana;fontSize=12;" parent="2" vertex="1">
                    <mxGeometry y="327" width="540" height="54" as="geometry"/>
                </mxCell>
                <mxCell id="28" value="'/users/&amp;lt;int:user_id&amp;gt;/menus/&amp;lt;int:id&amp;gt;'" style="shape=partialRectangle;html=1;whiteSpace=wrap;connectable=0;overflow=hidden;fillColor=none;top=0;left=0;bottom=0;right=0;pointerEvents=1;sketch=1;hachureGap=4;jiggle=2;curveFitting=1;fontFamily=Verdana;fontSize=12;" parent="27" vertex="1">
                    <mxGeometry width="250" height="54" as="geometry">
                        <mxRectangle width="250" height="54" as="alternateBounds"/>
                    </mxGeometry>
                </mxCell>
                <mxCell id="29" value="GET, PATCH, DELETE" style="shape=partialRectangle;html=1;whiteSpace=wrap;connectable=0;overflow=hidden;fillColor=none;top=0;left=0;bottom=0;right=0;pointerEvents=1;sketch=1;hachureGap=4;jiggle=2;curveFitting=1;fontFamily=Verdana;fontSize=12;" parent="27" vertex="1">
                    <mxGeometry x="250" width="110" height="54" as="geometry">
                        <mxRectangle width="110" height="54" as="alternateBounds"/>
                    </mxGeometry>
                </mxCell>
                <mxCell id="30" value="Retrieve, Update, or Delete a specific UserMenu" style="shape=partialRectangle;html=1;whiteSpace=wrap;connectable=0;overflow=hidden;fillColor=none;top=0;left=0;bottom=0;right=0;pointerEvents=1;sketch=1;hachureGap=4;jiggle=2;curveFitting=1;fontFamily=Verdana;fontSize=12;" parent="27" vertex="1">
                    <mxGeometry x="360" width="180" height="54" as="geometry">
                        <mxRectangle width="180" height="54" as="alternateBounds"/>
                    </mxGeometry>
                </mxCell>
                <mxCell id="31" value="'/users/&amp;lt;int:user_id&amp;gt;'" style="shape=partialRectangle;html=1;whiteSpace=wrap;connectable=0;overflow=hidden;fillColor=none;top=0;left=0;bottom=0;right=0;pointerEvents=1;sketch=1;hachureGap=4;jiggle=2;curveFitting=1;fontFamily=Verdana;fontSize=12;" parent="1" vertex="1">
                    <mxGeometry x="140" y="300" width="210" height="54" as="geometry">
                        <mxRectangle width="127" height="54" as="alternateBounds"/>
                    </mxGeometry>
                </mxCell>
            </root>
        </mxGraphModel>
    </diagram>
</mxfile>